<svg xmlns="http://www.w3.org/2000/svg" viewBox="0 0 1280 840" width="100%" height="100%" style="background:#090d16; font-family:-apple-system, BlinkMacSystemFont, 'Segoe UI', Roboto, Helvetica, Arial, sans-serif;">
  <defs>
    <!-- Gradients -->
    <linearGradient id="headerGrad" x1="0%" y1="0%" x2="100%" y2="0%">
      <stop offset="0%" stop-color="#38bdf8"/>
      <stop offset="50%" stop-color="#818cf8"/>
      <stop offset="100%" stop-color="#c084fc"/>
    </linearGradient>

    <linearGradient id="tier1Grad" x1="0%" y1="0%" x2="100%" y2="100%">
      <stop offset="0%" stop-color="#0e2338"/>
      <stop offset="100%" stop-color="#0a1827"/>
    </linearGradient>

    <linearGradient id="tier2Grad" x1="0%" y1="0%" x2="100%" y2="100%">
      <stop offset="0%" stop-color="#1b1738"/>
      <stop offset="100%" stop-color="#110d24"/>
    </linearGradient>

    <linearGradient id="tier3Grad" x1="0%" y1="0%" x2="100%" y2="100%">
      <stop offset="0%" stop-color="#2c1a14"/>
      <stop offset="100%" stop-color="#190e0a"/>
    </linearGradient>

    <linearGradient id="tier4Grad" x1="0%" y1="0%" x2="100%" y2="100%">
      <stop offset="0%" stop-color="#0a2a22"/>
      <stop offset="100%" stop-color="#061814"/>
    </linearGradient>

    <!-- Arrow Marker -->
    <marker id="arrowCyan" markerWidth="8" markerHeight="8" refX="6" refY="4" orient="auto">
      <path d="M 0 0 L 8 4 L 0 8 Z" fill="#38bdf8"/>
    </marker>
    <marker id="arrowPurple" markerWidth="8" markerHeight="8" refX="6" refY="4" orient="auto">
      <path d="M 0 0 L 8 4 L 0 8 Z" fill="#a78bfa"/>
    </marker>
    <marker id="arrowAmber" markerWidth="8" markerHeight="8" refX="6" refY="4" orient="auto">
      <path d="M 0 0 L 8 4 L 0 8 Z" fill="#fbbf24"/>
    </marker>
    <marker id="arrowEmerald" markerWidth="8" markerHeight="8" refX="6" refY="4" orient="auto">
      <path d="M 0 0 L 8 4 L 0 8 Z" fill="#34d399"/>
    </marker>

    <!-- Drop Shadows -->
    <filter id="cardShadow" x="-10%" y="-10%" width="120%" height="120%">
      <feDropShadow dx="0" dy="6" stdDeviation="8" flood-color="#000000" flood-opacity="0.5"/>
    </filter>
    <filter id="glowCyan" x="-20%" y="-20%" width="140%" height="140%">
      <feGaussianBlur stdDeviation="3" result="blur" />
      <feComposite in="SourceGraphic" in2="blur" operator="over" />
    </filter>
  </defs>

  <!-- Background Grid Pattern -->
  <pattern id="grid" width="40" height="40" patternUnits="userSpaceOnUse">
    <path d="M 40 0 L 0 0 0 40" fill="none" stroke="#141c2e" stroke-width="0.7"/>
  </pattern>
  <rect width="100%" height="100%" fill="url(#grid)" />

  <!-- Title & Header -->
  <g transform="translate(60, 45)">
    <text x="0" y="0" font-size="11" font-weight="700" fill="#38bdf8" letter-spacing="2">END-TO-END SYSTEM ARCHITECTURE</text>
    <text x="0" y="28" font-size="24" font-weight="800" fill="#f8fafc">KMITL Flood Intelligence Platform</text>
    <text x="0" y="48" font-size="13" font-weight="400" fill="#94a3b8">Decoupled Event-Driven Geospatial Architecture with 4 Horizontal Operational Tiers</text>
  </g>

  <!-- Latency Badge -->
  <g transform="translate(1040, 48)">
    <rect x="0" y="0" width="180" height="34" rx="17" fill="#0f172a" stroke="#22c55e" stroke-width="1.5" />
    <circle cx="20" cy="17" r="4.5" fill="#22c55e">
      <animate attributeName="opacity" values="1;0.3;1" dur="2s" repeatCount="indefinite"/>
    </circle>
    <text x="34" y="22" font-size="12" font-weight="700" fill="#f8fafc">SYNC LATENCY: &lt;150ms</text>
  </g>

  <!-- ==================== TIER 1: MULTI-SOURCE INGESTION ==================== -->
  <g transform="translate(60, 125)">
    <!-- Column Outer Box -->
    <rect x="0" y="0" width="260" height="655" rx="16" fill="url(#tier1Grad)" stroke="#0284c7" stroke-width="1.5" filter="url(#cardShadow)"/>
    
    <!-- Tier Header -->
    <rect x="0" y="0" width="260" height="44" rx="16" fill="#0369a1" />
    <rect x="0" y="28" width="260" height="16" fill="#0369a1" />
    <text x="16" y="27" font-size="13" font-weight="800" fill="#ffffff" letter-spacing="1">TIER 1: MULTI-SOURCE INGESTION</text>

    <!-- Source Card 1: TMD Weather -->
    <g transform="translate(14, 60)">
      <rect x="0" y="0" width="232" height="100" rx="10" fill="#091829" stroke="#1e3a5f" stroke-width="1"/>
      <circle cx="24" cy="24" r="10" fill="#0284c7"/>
      <text x="24" y="28" font-size="11" text-anchor="middle" fill="#ffffff">📡</text>
      <text x="42" y="22" font-size="13" font-weight="700" fill="#38bdf8">TMD Weather Radar</text>
      <text x="42" y="37" font-size="10" font-weight="600" fill="#64748b">10-15 Min • Rain Rate &amp; Radar dBZ</text>
      <path d="M 14 50 L 218 50" stroke="#132742" stroke-width="1"/>
      <text x="14" y="68" font-size="11" fill="#cbd5e1">• Atmospheric dBZ Reflectivity</text>
      <text x="14" y="85" font-size="11" fill="#cbd5e1">• Bang Na / Suvarnabhumi Radar</text>
    </g>

    <!-- Source Card 2: BMA Canal Telemetry -->
    <g transform="translate(14, 172)">
      <rect x="0" y="0" width="232" height="100" rx="10" fill="#091829" stroke="#1e3a5f" stroke-width="1"/>
      <circle cx="24" cy="24" r="10" fill="#0284c7"/>
      <text x="24" y="28" font-size="11" text-anchor="middle" fill="#ffffff">🌊</text>
      <text x="42" y="22" font-size="13" font-weight="700" fill="#38bdf8">BMA Canal Gauges</text>
      <text x="42" y="37" font-size="10" font-weight="600" fill="#64748b">10-30 Min • Canal MSL Water Levels</text>
      <path d="M 14 50 L 218 50" stroke="#132742" stroke-width="1"/>
      <text x="14" y="68" font-size="11" fill="#cbd5e1">• Khlong Prawet / Lam Pla Thio</text>
      <text x="14" y="85" font-size="11" fill="#cbd5e1">• 10/30/60m Delta &amp; Rise Trend</text>
    </g>

    <!-- Source Card 3: Copernicus Sentinel-1 -->
    <g transform="translate(14, 284)">
      <rect x="0" y="0" width="232" height="100" rx="10" fill="#091829" stroke="#1e3a5f" stroke-width="1"/>
      <circle cx="24" cy="24" r="10" fill="#0284c7"/>
      <text x="24" y="28" font-size="11" text-anchor="middle" fill="#ffffff">🛰️</text>
      <text x="42" y="22" font-size="13" font-weight="700" fill="#38bdf8">Copernicus SAR S1</text>
      <text x="42" y="37" font-size="10" font-weight="600" fill="#64748b">6-12 Day Revisit • STAC API</text>
      <path d="M 14 50 L 218 50" stroke="#132742" stroke-width="1"/>
      <text x="14" y="68" font-size="11" fill="#cbd5e1">• Cloud-penetrating C-band SAR</text>
      <text x="14" y="85" font-size="11" fill="#cbd5e1">• Observational Surface Inundation</text>
    </g>

    <!-- Source Card 4: Citizen Mobile Reports -->
    <g transform="translate(14, 396)">
      <rect x="0" y="0" width="232" height="100" rx="10" fill="#091829" stroke="#0284c7" stroke-width="1.5"/>
      <circle cx="24" cy="24" r="10" fill="#0284c7"/>
      <text x="24" y="28" font-size="11" text-anchor="middle" fill="#ffffff">📱</text>
      <text x="42" y="22" font-size="13" font-weight="700" fill="#38bdf8">Citizen GPS Reports</text>
      <text x="42" y="37" font-size="10" font-weight="600" fill="#38bdf8">REAL-TIME • Sub-Second Velocity</text>
      <path d="M 14 50 L 218 50" stroke="#132742" stroke-width="1"/>
      <text x="14" y="68" font-size="11" fill="#cbd5e1">• Physical Depth (10, 30, 60cm)</text>
      <text x="14" y="85" font-size="11" fill="#cbd5e1">• Live Geolocation &amp; Photos</text>
    </g>

    <!-- Validation & Ingestion Gateway -->
    <g transform="translate(14, 510)">
      <rect x="0" y="0" width="232" height="125" rx="10" fill="#0c2033" stroke="#0369a1" stroke-width="1"/>
      <text x="14" y="22" font-size="12" font-weight="700" fill="#38bdf8">⚙️ Ingestion &amp; Quality Filter</text>
      <text x="14" y="44" font-size="11" fill="#94a3b8">✔ BaseAdapter Common Schema</text>
      <text x="14" y="64" font-size="11" fill="#94a3b8">✔ Zone A/B Geofence Check</text>
      <text x="14" y="84" font-size="11" fill="#94a3b8">✔ EXIF GPS Privacy Stripper</text>
      <text x="14" y="104" font-size="11" fill="#94a3b8">✔ pHash Duplicate Image Filter</text>
    </g>
  </g>

  <!-- Arrow T1 -> T2 -->
  <path d="M 320 445 L 360 445" stroke="#38bdf8" stroke-width="2.5" stroke-dasharray="6,4" marker-end="url(#arrowCyan)"/>
  <rect x="322" y="420" width="36" height="18" rx="4" fill="#0c2033" stroke="#0284c7" stroke-width="0.8"/>
  <text x="340" y="433" font-size="9" font-weight="700" text-anchor="middle" fill="#38bdf8">REST</text>

  <!-- ==================== TIER 2: STORAGE & SPATIAL ENGINE ==================== -->
  <g transform="translate(365, 125)">
    <!-- Column Outer Box -->
    <rect x="0" y="0" width="260" height="655" rx="16" fill="url(#tier2Grad)" stroke="#7c3aed" stroke-width="1.5" filter="url(#cardShadow)"/>
    
    <!-- Tier Header -->
    <rect x="0" y="0" width="260" height="44" rx="16" fill="#6d28d9" />
    <rect x="0" y="28" width="260" height="16" fill="#6d28d9" />
    <text x="16" y="27" font-size="13" font-weight="800" fill="#ffffff" letter-spacing="1">TIER 2: STORAGE &amp; SPATIAL</text>

    <!-- PostGIS Box -->
    <g transform="translate(14, 60)">
      <rect x="0" y="0" width="232" height="145" rx="10" fill="#13102b" stroke="#3730a3" stroke-width="1"/>
      <circle cx="24" cy="24" r="10" fill="#7c3aed"/>
      <text x="24" y="28" font-size="11" text-anchor="middle" fill="#ffffff">🐘</text>
      <text x="42" y="22" font-size="13" font-weight="700" fill="#c084fc">PostgreSQL 16 + PostGIS</text>
      <text x="42" y="37" font-size="10" font-weight="600" fill="#818cf8">PostGIS 3.4 Spatial Indices</text>
      <path d="M 14 50 L 218 50" stroke="#26214a" stroke-width="1"/>
      <text x="14" y="70" font-size="11" fill="#cbd5e1">• GIST(geom) Spatial Indexes</text>
      <text x="14" y="90" font-size="11" fill="#cbd5e1">• ST_DWithin &amp; ST_MakeEnvelope</text>
      <text x="14" y="110" font-size="11" fill="#cbd5e1">• Time-Series Hydrometric Tables</text>
      <text x="14" y="130" font-size="11" fill="#cbd5e1">• GeoJSON Native Serialization</text>
    </g>

    <!-- Spatial Analytics: DBSCAN -->
    <g transform="translate(14, 220)">
      <rect x="0" y="0" width="232" height="135" rx="10" fill="#13102b" stroke="#7c3aed" stroke-width="1.2"/>
      <circle cx="24" cy="24" r="10" fill="#7c3aed"/>
      <text x="24" y="28" font-size="11" text-anchor="middle" fill="#ffffff">🧠</text>
      <text x="42" y="22" font-size="13" font-weight="700" fill="#c084fc">scikit-learn DBSCAN</text>
      <text x="42" y="37" font-size="10" font-weight="600" fill="#a78bfa">Spatio-Temporal Clustering</text>
      <path d="M 14 50 L 218 50" stroke="#26214a" stroke-width="1"/>
      <text x="14" y="70" font-size="11" fill="#cbd5e1">• Clustering Radius: ε = 250m</text>
      <text x="14" y="90" font-size="11" fill="#cbd5e1">• Sliding Time Window: 2.0 Hrs</text>
      <text x="14" y="110" font-size="11" fill="#cbd5e1">• Incident Confidence Scorer</text>
    </g>

    <!-- Multi-Tier Resilient Queue -->
    <g transform="translate(14, 370)">
      <rect x="0" y="0" width="232" height="265" rx="10" fill="#13102b" stroke="#4f46e5" stroke-width="1"/>
      <circle cx="24" cy="24" r="10" fill="#4f46e5"/>
      <text x="24" y="28" font-size="11" text-anchor="middle" fill="#ffffff">🛡️</text>
      <text x="42" y="22" font-size="13" font-weight="700" fill="#a5b4fc">Multi-Tier Resilient Queue</text>
      <text x="42" y="37" font-size="10" font-weight="600" fill="#818cf8">Zero Data Loss Guarantee</text>
      <path d="M 14 50 L 218 50" stroke="#26214a" stroke-width="1"/>

      <!-- Queue Sub-tier 1 -->
      <rect x="12" y="60" width="208" height="42" rx="6" fill="#1e1945" stroke="#4338ca" stroke-width="0.8"/>
      <text x="22" y="78" font-size="11" font-weight="700" fill="#c7d2fe">Tier 1: AWS SQS FIFO</text>
      <text x="22" y="93" font-size="10" fill="#94a3b8">Cloud Elastic Distribution</text>

      <!-- Queue Sub-tier 2 -->
      <rect x="12" y="110" width="208" height="42" rx="6" fill="#1e1945" stroke="#4338ca" stroke-width="0.8"/>
      <text x="22" y="128" font-size="11" font-weight="700" fill="#c7d2fe">Tier 2: Redis List</text>
      <text x="22" y="143" font-size="10" fill="#94a3b8">LPUSH / BLPOP Workers</text>

      <!-- Queue Sub-tier 3 -->
      <rect x="12" y="160" width="208" height="42" rx="6" fill="#1e1945" stroke="#4338ca" stroke-width="0.8"/>
      <text x="22" y="178" font-size="11" font-weight="700" fill="#c7d2fe">Tier 3: Disk WAL Spool</text>
      <text x="22" y="193" font-size="10" fill="#94a3b8">queue_spool.jsonl (os.fsync)</text>

      <rect x="12" y="210" width="208" height="40" rx="6" fill="#2d1222" stroke="#b91c1c" stroke-width="0.8"/>
      <text x="22" y="227" font-size="10" font-weight="700" fill="#fca5a5">Dead Letter Queue (DLQ)</text>
      <text x="22" y="241" font-size="9" fill="#f87171">Auto-route after 3x failed attempts</text>
    </g>
  </g>

  <!-- Arrow T2 -> T3 -->
  <path d="M 625 445 L 665 445" stroke="#a78bfa" stroke-width="2.5" stroke-dasharray="6,4" marker-end="url(#arrowPurple)"/>
  <rect x="626" y="420" width="40" height="18" rx="4" fill="#161033" stroke="#7c3aed" stroke-width="0.8"/>
  <text x="646" y="433" font-size="9" font-weight="700" text-anchor="middle" fill="#c084fc">ASYNC</text>

  <!-- ==================== TIER 3: REAL-TIME EVENT HUB ==================== -->
  <g transform="translate(670, 125)">
    <!-- Column Outer Box -->
    <rect x="0" y="0" width="260" height="655" rx="16" fill="url(#tier3Grad)" stroke="#ea580c" stroke-width="1.5" filter="url(#cardShadow)"/>
    
    <!-- Tier Header -->
    <rect x="0" y="0" width="260" height="44" rx="16" fill="#c2410c" />
    <rect x="0" y="28" width="260" height="16" fill="#c2410c" />
    <text x="16" y="27" font-size="13" font-weight="800" fill="#ffffff" letter-spacing="1">TIER 3: REAL-TIME EVENT HUB</text>

    <!-- Redis Pub/Sub Box -->
    <g transform="translate(14, 60)">
      <rect x="0" y="0" width="232" height="135" rx="10" fill="#1e100b" stroke="#7c2d12" stroke-width="1"/>
      <circle cx="24" cy="24" r="10" fill="#ea580c"/>
      <text x="24" y="28" font-size="11" text-anchor="middle" fill="#ffffff">⚡</text>
      <text x="42" y="22" font-size="13" font-weight="700" fill="#fdba74">Redis 7.2 Pub/Sub</text>
      <text x="42" y="37" font-size="10" font-weight="600" fill="#fb923c">Channel: flood:events</text>
      <path d="M 14 50 L 218 50" stroke="#381b10" stroke-width="1"/>
      <text x="14" y="70" font-size="11" fill="#cbd5e1">• Event: REPORT_CREATED</text>
      <text x="14" y="90" font-size="11" fill="#cbd5e1">• Event: INCIDENT_UPDATED</text>
      <text x="14" y="110" font-size="11" fill="#cbd5e1">• Event: RISK_CHANGED</text>
      <text x="14" y="127" font-size="10" font-weight="700" fill="#fb923c">Sub-millisecond fanout engine</text>
    </g>

    <!-- Async Worker Fleet -->
    <g transform="translate(14, 210)">
      <rect x="0" y="0" width="232" height="145" rx="10" fill="#1e100b" stroke="#c2410c" stroke-width="1"/>
      <circle cx="24" cy="24" r="10" fill="#ea580c"/>
      <text x="24" y="28" font-size="11" text-anchor="middle" fill="#ffffff">⚙️</text>
      <text x="42" y="22" font-size="13" font-weight="700" fill="#fdba74">AsyncQueueWorker</text>
      <text x="42" y="37" font-size="10" font-weight="600" fill="#fb923c">Background Worker Loop</text>
      <path d="M 14 50 L 218 50" stroke="#381b10" stroke-width="1"/>
      <text x="14" y="70" font-size="11" fill="#cbd5e1">• BLPOP 2.0s Worker Loop</text>
      <text x="14" y="90" font-size="11" fill="#cbd5e1">• Image pHash Calculation</text>
      <text x="14" y="110" font-size="11" fill="#cbd5e1">• Exposure Cost Recalculation</text>
      <text x="14" y="130" font-size="11" fill="#cbd5e1">• Dead Letter Queue Handler</text>
    </g>

    <!-- 3-Tier Hybrid Transport -->
    <g transform="translate(14, 370)">
      <rect x="0" y="0" width="232" height="265" rx="10" fill="#1e100b" stroke="#ea580c" stroke-width="1.2"/>
      <circle cx="24" cy="24" r="10" fill="#ea580c"/>
      <text x="24" y="28" font-size="11" text-anchor="middle" fill="#ffffff">🔄</text>
      <text x="42" y="22" font-size="13" font-weight="700" fill="#fed7aa">3-Tier Hybrid Transport</text>
      <text x="42" y="37" font-size="10" font-weight="600" fill="#fb923c">Auto-Fallback Delivery</text>
      <path d="M 14 50 L 218 50" stroke="#381b10" stroke-width="1"/>

      <!-- Transport 1: WebSocket -->
      <rect x="12" y="60" width="208" height="54" rx="6" fill="#2d150b" stroke="#f97316" stroke-width="1"/>
      <text x="22" y="77" font-size="11" font-weight="800" fill="#fed7aa">Tier 1: WebSocket (/ws/live)</text>
      <text x="22" y="92" font-size="10" fill="#94a3b8">Full-Duplex • Latency &lt;150ms</text>
      <text x="22" y="105" font-size="9" fill="#22c55e">● Primary Live Channel</text>

      <!-- Transport 2: SSE -->
      <rect x="12" y="122" width="208" height="64" rx="6" fill="#24120a" stroke="#ea580c" stroke-width="0.8"/>
      <text x="22" y="139" font-size="11" font-weight="700" fill="#fed7aa">Tier 2: SSE (/api/v1/realtime)</text>
      <text x="22" y="154" font-size="10" fill="#94a3b8">HTTP Stream • 15s Keep-alive</text>
      <text x="22" y="169" font-size="9" fill="#38bdf8">✔ Viewport BBox Filter (Zero Overfetch)</text>

      <!-- Transport 3: HTTP Polling -->
      <rect x="12" y="194" width="208" height="52" rx="6" fill="#24120a" stroke="#9a3412" stroke-width="0.8"/>
      <text x="22" y="211" font-size="11" font-weight="700" fill="#fed7aa">Tier 3: HTTP Polling</text>
      <text x="22" y="226" font-size="10" fill="#94a3b8">20-Second Automated Poll</text>
      <text x="22" y="238" font-size="9" fill="#f59e0b">● Strict Corporate Firewall Fallback</text>
    </g>
  </g>

  <!-- Arrow T3 -> T4 -->
  <path d="M 930 445 L 970 445" stroke="#fbbf24" stroke-width="2.5" stroke-dasharray="6,4" marker-end="url(#arrowAmber)"/>
  <rect x="931" y="420" width="38" height="18" rx="4" fill="#22120a" stroke="#ea580c" stroke-width="0.8"/>
  <text x="950" y="433" font-size="9" font-weight="700" text-anchor="middle" fill="#fed7aa">SYNC</text>

  <!-- ==================== TIER 4: NEXT.JS 14 APPLICATION ==================== -->
  <g transform="translate(975, 125)">
    <!-- Column Outer Box -->
    <rect x="0" y="0" width="245" height="655" rx="16" fill="url(#tier4Grad)" stroke="#059669" stroke-width="1.5" filter="url(#cardShadow)"/>
    
    <!-- Tier Header -->
    <rect x="0" y="0" width="245" height="44" rx="16" fill="#047857" />
    <rect x="0" y="28" width="245" height="16" fill="#047857" />
    <text x="16" y="27" font-size="13" font-weight="800" fill="#ffffff" letter-spacing="1">TIER 4: NEXT.JS 14 CLIENT</text>

    <!-- MapLibre Map Engine -->
    <g transform="translate(12, 60)">
      <rect x="0" y="0" width="221" height="135" rx="10" fill="#051c16" stroke="#047857" stroke-width="1"/>
      <circle cx="24" cy="24" r="10" fill="#059669"/>
      <text x="24" y="28" font-size="11" text-anchor="middle" fill="#ffffff">🗺️</text>
      <text x="42" y="22" font-size="13" font-weight="700" fill="#6ee7b7">MapLibre GL JS</text>
      <text x="42" y="37" font-size="10" font-weight="600" fill="#34d399">60 FPS WebGL Rendering</text>
      <path d="M 14 50 L 207 50" stroke="#0d3126" stroke-width="1"/>
      <text x="14" y="70" font-size="11" fill="#cbd5e1">• CARTO Voyager / Dark</text>
      <text x="14" y="90" font-size="11" fill="#cbd5e1">• Road Status: Green/Yellow/Red</text>
      <text x="14" y="110" font-size="11" fill="#cbd5e1">• 24h Time Evolution Slider</text>
      <text x="14" y="127" font-size="10" font-weight="600" fill="#6ee7b7">Layer toggles &amp; GeoJSON deltas</text>
    </g>

    <!-- Live Situational Dashboard -->
    <g transform="translate(12, 210)">
      <rect x="0" y="0" width="221" height="115" rx="10" fill="#051c16" stroke="#065f46" stroke-width="1"/>
      <circle cx="24" cy="24" r="10" fill="#059669"/>
      <text x="24" y="28" font-size="11" text-anchor="middle" fill="#ffffff">📊</text>
      <text x="42" y="22" font-size="13" font-weight="700" fill="#6ee7b7">Live Situation Hero</text>
      <text x="42" y="37" font-size="10" font-weight="600" fill="#34d399">Real-Time State Indicators</text>
      <path d="M 14 50 L 207 50" stroke="#0d3126" stroke-width="1"/>
      <text x="14" y="70" font-size="11" fill="#cbd5e1">• Transport: WEBSOCKET LIVE</text>
      <text x="14" y="90" font-size="11" fill="#cbd5e1">• Freshness Badge: &lt;15s</text>
      <text x="14" y="107" font-size="10" fill="#94a3b8">Active Incidents &amp; Canal Status</text>
    </g>

    <!-- Flood-Aware Routing Engine -->
    <g transform="translate(12, 340)">
      <rect x="0" y="0" width="221" height="140" rx="10" fill="#051c16" stroke="#065f46" stroke-width="1"/>
      <circle cx="24" cy="24" r="10" fill="#059669"/>
      <text x="24" y="28" font-size="11" text-anchor="middle" fill="#ffffff">🧭</text>
      <text x="42" y="22" font-size="13" font-weight="700" fill="#6ee7b7">Safe Route Evaluator</text>
      <text x="42" y="37" font-size="10" font-weight="600" fill="#34d399">OSM Graph + Exposure Cost</text>
      <path d="M 14 50 L 207 50" stroke="#0d3126" stroke-width="1"/>
      <text x="14" y="70" font-size="11" fill="#cbd5e1">• C_route = T_base × M_exp + P</text>
      <text x="14" y="90" font-size="11" fill="#cbd5e1">• 50x Penalty on Impassable Rd</text>
      <text x="14" y="110" font-size="11" fill="#cbd5e1">• 2-3 Candidate Corridors</text>
      <text x="14" y="127" font-size="10" fill="#94a3b8">KMITL ➔ Airport Rail Link</text>
    </g>

    <!-- Citizen SOS & Shelter Dispatch -->
    <g transform="translate(12, 495)">
      <rect x="0" y="0" width="221" height="140" rx="10" fill="#051c16" stroke="#059669" stroke-width="1.2"/>
      <circle cx="24" cy="24" r="10" fill="#dc2626"/>
      <text x="24" y="28" font-size="11" text-anchor="middle" fill="#ffffff">🚨</text>
      <text x="42" y="22" font-size="13" font-weight="700" fill="#fca5a5">SOS &amp; Shelter Dispatch</text>
      <text x="42" y="37" font-size="10" font-weight="600" fill="#f87171">Emergency Assistance</text>
      <path d="M 14 50 L 207 50" stroke="#0d3126" stroke-width="1"/>
      <text x="14" y="70" font-size="11" fill="#cbd5e1">• 1-Tap Urgent Rescue Dispatch</text>
      <text x="14" y="90" font-size="11" fill="#cbd5e1">• Nearest Safe Evacuation Haven</text>
      <text x="14" y="110" font-size="11" fill="#cbd5e1">• Honest Occupancy Verification</text>
      <text x="14" y="127" font-size="10" fill="#94a3b8">KMITL Convention Hall (850m)</text>
    </g>
  </g>
</svg>